<svg width="1436" height="928" viewBox="0 0 1436 928" fill="none" xmlns="http://www.w3.org/2000/svg">
<path d="M969.897 228.666C995.188 215.409 1026.64 207.982 1066.98 209.112C1133.64 210.98 1174.77 234.464 1203 270.576C1232.26 307.997 1249.12 360.791 1262.25 424.046C1268.76 455.448 1274.22 488.643 1279.97 523.112C1285.7 557.424 1291.7 592.89 1299.24 628.1C1314.3 698.407 1335.77 769.169 1374.84 830.418L1375.79 831.908L1376.98 833.209C1401.16 859.46 1411.26 877.125 1414.63 888.116C1417.6 897.793 1414.96 900.197 1414.37 900.839C1412.31 903.07 1407.85 905.296 1401.47 906.683C1398.62 907.301 1396.01 907.619 1394.12 907.776C1393.19 907.854 1392.48 907.89 1392.04 907.906C1391.83 907.914 1391.69 907.917 1391.62 907.918H1001.24C1000.77 900.188 998.621 891.959 995.293 883.395C989.134 867.544 977.719 847.415 959.062 821.451C889.874 725.167 850.118 590.127 831.472 487.195C852.641 407.886 872.771 337.562 907.093 286.962C924.249 261.67 944.589 241.933 969.897 228.666Z" stroke="black" stroke-width="40"/>
<path d="M349.106 85.7139C389.779 43.1479 446.326 17.724 534.281 20.1602C620.464 22.5473 674.291 52.7078 711.207 99.3994C749.138 147.376 770.737 214.658 787.43 294.207C795.73 333.759 802.677 375.554 809.977 418.811C817.25 461.908 824.856 506.346 834.405 550.44C853.481 638.522 880.594 726.712 929.734 802.886L930.695 804.376L931.903 805.674C962.859 838.917 977.634 862.198 983.637 877.818C989.414 892.853 986.221 898.05 985.24 899.433C983.312 902.151 978.943 904.786 972.2 906.476C969.17 907.235 966.341 907.627 964.271 907.823C963.255 907.92 962.469 907.964 961.991 907.984C961.754 907.994 961.597 907.999 961.529 908H41.9102C40.8052 906.982 39.5535 905.768 38.2217 904.368C33.2364 899.127 27.5939 891.777 23.9346 882.833C20.3701 874.121 18.6293 863.816 21.29 851.792C23.9808 839.633 31.5199 824.175 49.1123 805.924L50.1016 804.897L50.9355 803.741C175.702 630.7 209.441 424.417 256.512 271.005C280.442 193.012 307.372 129.391 349.106 85.7139Z" stroke="black" stroke-width="40"/>
<path d="M272 204.047C272 204.047 337.056 265.414 386.877 263.667C433.571 262.03 446.094 205.931 492.78 204.047C550.298 201.725 563.009 286.308 620.479 282.9C664.943 280.263 676.632 221.06 720.997 225.203C751.604 228.06 791 263.667 791 263.667" stroke="black" stroke-width="40"/>
<path d="M886 305.047C886 305.047 951.021 366.336 1000.82 364.592C1047.49 362.957 1060 306.929 1106.66 305.047C1164.15 302.728 1204.56 387.304 1262 383.9" stroke="black" stroke-width="40"/>
</svg>
